<mxfile host="app.diagrams.net" modified="2023-05-22T22:22:34.549Z" agent="Mozilla/5.0 (Windows NT 10.0; Win64; x64) AppleWebKit/537.36 (KHTML, like Gecko) Chrome/113.0.0.0 Safari/537.36" etag="epucV4C8gYIW9e_JQWpU" version="21.3.2" type="google">
  <diagram name="Page-1" id="1jLMsBRunGUjcwRZZ0NF">
    <mxGraphModel grid="1" page="1" gridSize="10" guides="1" tooltips="1" connect="1" arrows="1" fold="1" pageScale="1" pageWidth="850" pageHeight="1100" math="0" shadow="0">
      <root>
        <mxCell id="0" />
        <mxCell id="1" parent="0" />
        <mxCell id="cjA_gk0RnKk8VnKWEliR-25" value="" style="edgeStyle=orthogonalEdgeStyle;rounded=0;orthogonalLoop=1;jettySize=auto;html=1;endArrow=none;endFill=0;" edge="1" parent="1" source="cjA_gk0RnKk8VnKWEliR-1" target="cjA_gk0RnKk8VnKWEliR-24">
          <mxGeometry relative="1" as="geometry">
            <Array as="points">
              <mxPoint x="300" y="160" />
              <mxPoint x="300" y="160" />
            </Array>
          </mxGeometry>
        </mxCell>
        <mxCell id="cjA_gk0RnKk8VnKWEliR-68" value="" style="edgeStyle=orthogonalEdgeStyle;rounded=0;orthogonalLoop=1;jettySize=auto;html=1;endArrow=none;endFill=0;" edge="1" parent="1" source="cjA_gk0RnKk8VnKWEliR-1" target="cjA_gk0RnKk8VnKWEliR-67">
          <mxGeometry relative="1" as="geometry">
            <Array as="points">
              <mxPoint x="390" y="260" />
            </Array>
          </mxGeometry>
        </mxCell>
        <mxCell id="Iv4Cx4DrSURBsK4lQLtf-2" style="edgeStyle=orthogonalEdgeStyle;rounded=0;orthogonalLoop=1;jettySize=auto;html=1;exitX=0.75;exitY=0;exitDx=0;exitDy=0;entryX=0.75;entryY=0;entryDx=0;entryDy=0;endArrow=none;endFill=0;" edge="1" parent="1" source="cjA_gk0RnKk8VnKWEliR-1" target="cjA_gk0RnKk8VnKWEliR-58">
          <mxGeometry relative="1" as="geometry">
            <Array as="points">
              <mxPoint x="420" />
              <mxPoint x="641" />
            </Array>
          </mxGeometry>
        </mxCell>
        <mxCell id="cjA_gk0RnKk8VnKWEliR-1" value="&lt;font style=&quot;font-size: 14px;&quot;&gt;User&lt;/font&gt;" style="rounded=0;whiteSpace=wrap;html=1;" vertex="1" parent="1">
          <mxGeometry x="330" y="70" width="120" height="120" as="geometry" />
        </mxCell>
        <mxCell id="cjA_gk0RnKk8VnKWEliR-9" value="Name&lt;br&gt;Zone&lt;br&gt;LastName&lt;br&gt;Address&lt;br&gt;Date of Birth&lt;br&gt;Email&lt;br&gt;Password&lt;br&gt;Phone&lt;br&gt;Gender&lt;br&gt;IgAccount&lt;br&gt;CI" style="text;html=1;strokeColor=none;fillColor=none;align=left;verticalAlign=middle;whiteSpace=wrap;rounded=0;" vertex="1" parent="1">
          <mxGeometry x="493" y="39" width="88" height="139" as="geometry" />
        </mxCell>
        <mxCell id="cjA_gk0RnKk8VnKWEliR-17" style="edgeStyle=orthogonalEdgeStyle;rounded=0;orthogonalLoop=1;jettySize=auto;html=1;endArrow=oval;endFill=1;" edge="1" parent="1" source="cjA_gk0RnKk8VnKWEliR-14">
          <mxGeometry relative="1" as="geometry">
            <mxPoint x="130" y="295" as="targetPoint" />
            <Array as="points">
              <mxPoint x="170" y="295" />
              <mxPoint x="170" y="295" />
            </Array>
          </mxGeometry>
        </mxCell>
        <mxCell id="cjA_gk0RnKk8VnKWEliR-49" value="" style="edgeStyle=orthogonalEdgeStyle;rounded=0;orthogonalLoop=1;jettySize=auto;html=1;endArrow=none;endFill=0;" edge="1" parent="1" source="cjA_gk0RnKk8VnKWEliR-14" target="cjA_gk0RnKk8VnKWEliR-48">
          <mxGeometry relative="1" as="geometry" />
        </mxCell>
        <mxCell id="cjA_gk0RnKk8VnKWEliR-79" style="edgeStyle=orthogonalEdgeStyle;rounded=0;orthogonalLoop=1;jettySize=auto;html=1;entryX=0;entryY=0.5;entryDx=0;entryDy=0;endArrow=none;endFill=0;" edge="1" parent="1" source="cjA_gk0RnKk8VnKWEliR-14" target="cjA_gk0RnKk8VnKWEliR-77">
          <mxGeometry relative="1" as="geometry">
            <Array as="points">
              <mxPoint x="354" y="290" />
              <mxPoint x="354" y="360" />
            </Array>
          </mxGeometry>
        </mxCell>
        <mxCell id="cjA_gk0RnKk8VnKWEliR-14" value="Skill" style="rounded=0;whiteSpace=wrap;html=1;" vertex="1" parent="1">
          <mxGeometry x="180" y="270" width="70" height="90" as="geometry" />
        </mxCell>
        <mxCell id="cjA_gk0RnKk8VnKWEliR-16" value="Name&lt;br&gt;Description" style="text;html=1;strokeColor=none;fillColor=none;align=right;verticalAlign=middle;whiteSpace=wrap;rounded=0;" vertex="1" parent="1">
          <mxGeometry x="20" y="255" width="100" height="86" as="geometry" />
        </mxCell>
        <mxCell id="cjA_gk0RnKk8VnKWEliR-19" style="edgeStyle=orthogonalEdgeStyle;rounded=0;orthogonalLoop=1;jettySize=auto;html=1;endArrow=oval;endFill=0;" edge="1" parent="1">
          <mxGeometry relative="1" as="geometry">
            <mxPoint x="480" y="130" as="targetPoint" />
            <mxPoint x="450" y="130" as="sourcePoint" />
            <Array as="points">
              <mxPoint x="450" y="130" />
              <mxPoint x="480" y="130" />
            </Array>
          </mxGeometry>
        </mxCell>
        <mxCell id="cjA_gk0RnKk8VnKWEliR-26" style="edgeStyle=orthogonalEdgeStyle;rounded=0;orthogonalLoop=1;jettySize=auto;html=1;endArrow=none;endFill=0;" edge="1" parent="1" source="cjA_gk0RnKk8VnKWEliR-24" target="cjA_gk0RnKk8VnKWEliR-14">
          <mxGeometry relative="1" as="geometry" />
        </mxCell>
        <mxCell id="cjA_gk0RnKk8VnKWEliR-24" value="" style="rhombus;whiteSpace=wrap;html=1;rounded=0;" vertex="1" parent="1">
          <mxGeometry x="195" y="140" width="40" height="40" as="geometry" />
        </mxCell>
        <mxCell id="cjA_gk0RnKk8VnKWEliR-27" value="0...n" style="text;html=1;strokeColor=none;fillColor=none;align=center;verticalAlign=middle;whiteSpace=wrap;rounded=0;" vertex="1" parent="1">
          <mxGeometry x="302" y="140" width="20" height="20" as="geometry" />
        </mxCell>
        <mxCell id="cjA_gk0RnKk8VnKWEliR-30" value="n...0" style="text;html=1;strokeColor=none;fillColor=none;align=center;verticalAlign=middle;whiteSpace=wrap;rounded=0;" vertex="1" parent="1">
          <mxGeometry x="222" y="250" width="20" height="20" as="geometry" />
        </mxCell>
        <mxCell id="cjA_gk0RnKk8VnKWEliR-32" style="edgeStyle=orthogonalEdgeStyle;rounded=0;orthogonalLoop=1;jettySize=auto;html=1;endArrow=oval;endFill=0;" edge="1" parent="1">
          <mxGeometry relative="1" as="geometry">
            <mxPoint x="130" y="307" as="targetPoint" />
            <mxPoint x="180" y="307" as="sourcePoint" />
            <Array as="points">
              <mxPoint x="170" y="307" />
              <mxPoint x="170" y="307" />
            </Array>
          </mxGeometry>
        </mxCell>
        <mxCell id="cjA_gk0RnKk8VnKWEliR-35" style="edgeStyle=orthogonalEdgeStyle;rounded=0;orthogonalLoop=1;jettySize=auto;html=1;endArrow=oval;endFill=0;" edge="1" parent="1">
          <mxGeometry relative="1" as="geometry">
            <mxPoint x="480" y="118" as="targetPoint" />
            <mxPoint x="450" y="118" as="sourcePoint" />
            <Array as="points">
              <mxPoint x="450" y="118" />
              <mxPoint x="480" y="118" />
            </Array>
          </mxGeometry>
        </mxCell>
        <mxCell id="cjA_gk0RnKk8VnKWEliR-36" style="edgeStyle=orthogonalEdgeStyle;rounded=0;orthogonalLoop=1;jettySize=auto;html=1;endArrow=oval;endFill=0;" edge="1" parent="1">
          <mxGeometry relative="1" as="geometry">
            <mxPoint x="481" y="105" as="targetPoint" />
            <mxPoint x="451" y="105" as="sourcePoint" />
            <Array as="points">
              <mxPoint x="451" y="105" />
              <mxPoint x="481" y="105" />
            </Array>
          </mxGeometry>
        </mxCell>
        <mxCell id="cjA_gk0RnKk8VnKWEliR-37" style="edgeStyle=orthogonalEdgeStyle;rounded=0;orthogonalLoop=1;jettySize=auto;html=1;endArrow=oval;endFill=0;" edge="1" parent="1">
          <mxGeometry relative="1" as="geometry">
            <mxPoint x="480" y="146" as="targetPoint" />
            <mxPoint x="450" y="146" as="sourcePoint" />
            <Array as="points">
              <mxPoint x="450" y="146" />
              <mxPoint x="480" y="146" />
            </Array>
          </mxGeometry>
        </mxCell>
        <mxCell id="cjA_gk0RnKk8VnKWEliR-38" style="edgeStyle=orthogonalEdgeStyle;rounded=0;orthogonalLoop=1;jettySize=auto;html=1;endArrow=oval;endFill=0;" edge="1" parent="1">
          <mxGeometry relative="1" as="geometry">
            <mxPoint x="480" y="160" as="targetPoint" />
            <mxPoint x="450" y="160" as="sourcePoint" />
            <Array as="points">
              <mxPoint x="450" y="160" />
              <mxPoint x="480" y="160" />
            </Array>
          </mxGeometry>
        </mxCell>
        <mxCell id="cjA_gk0RnKk8VnKWEliR-39" style="edgeStyle=orthogonalEdgeStyle;rounded=0;orthogonalLoop=1;jettySize=auto;html=1;endArrow=oval;endFill=1;" edge="1" parent="1">
          <mxGeometry relative="1" as="geometry">
            <mxPoint x="480" y="175" as="targetPoint" />
            <mxPoint x="450" y="175" as="sourcePoint" />
            <Array as="points">
              <mxPoint x="450" y="175" />
              <mxPoint x="480" y="175" />
            </Array>
          </mxGeometry>
        </mxCell>
        <mxCell id="cjA_gk0RnKk8VnKWEliR-41" style="edgeStyle=orthogonalEdgeStyle;rounded=0;orthogonalLoop=1;jettySize=auto;html=1;endArrow=oval;endFill=0;" edge="1" parent="1">
          <mxGeometry relative="1" as="geometry">
            <mxPoint x="481" y="93" as="targetPoint" />
            <mxPoint x="451" y="93" as="sourcePoint" />
            <Array as="points">
              <mxPoint x="451" y="93" />
              <mxPoint x="481" y="93" />
            </Array>
          </mxGeometry>
        </mxCell>
        <mxCell id="cjA_gk0RnKk8VnKWEliR-42" style="edgeStyle=orthogonalEdgeStyle;rounded=0;orthogonalLoop=1;jettySize=auto;html=1;endArrow=oval;endFill=0;" edge="1" parent="1">
          <mxGeometry relative="1" as="geometry">
            <mxPoint x="481" y="79" as="targetPoint" />
            <mxPoint x="451" y="79" as="sourcePoint" />
            <Array as="points">
              <mxPoint x="451" y="79" />
              <mxPoint x="481" y="79" />
            </Array>
          </mxGeometry>
        </mxCell>
        <mxCell id="cjA_gk0RnKk8VnKWEliR-46" style="edgeStyle=orthogonalEdgeStyle;rounded=0;orthogonalLoop=1;jettySize=auto;html=1;exitX=0;exitY=0.25;exitDx=0;exitDy=0;endArrow=oval;endFill=1;" edge="1" parent="1">
          <mxGeometry relative="1" as="geometry">
            <mxPoint x="200" y="501" as="targetPoint" />
            <mxPoint x="242" y="501" as="sourcePoint" />
          </mxGeometry>
        </mxCell>
        <mxCell id="cjA_gk0RnKk8VnKWEliR-51" style="edgeStyle=orthogonalEdgeStyle;rounded=0;orthogonalLoop=1;jettySize=auto;html=1;exitX=0.5;exitY=0;exitDx=0;exitDy=0;entryX=0.5;entryY=1;entryDx=0;entryDy=0;endArrow=none;endFill=0;" edge="1" parent="1" source="cjA_gk0RnKk8VnKWEliR-43" target="cjA_gk0RnKk8VnKWEliR-48">
          <mxGeometry relative="1" as="geometry" />
        </mxCell>
        <mxCell id="cjA_gk0RnKk8VnKWEliR-43" value="Category" style="rounded=0;whiteSpace=wrap;html=1;" vertex="1" parent="1">
          <mxGeometry x="241" y="481" width="120" height="60" as="geometry" />
        </mxCell>
        <mxCell id="cjA_gk0RnKk8VnKWEliR-44" value="&lt;br&gt;CategoryName" style="text;html=1;strokeColor=none;fillColor=none;align=right;verticalAlign=middle;whiteSpace=wrap;rounded=0;" vertex="1" parent="1">
          <mxGeometry x="135" y="479" width="60" height="30" as="geometry" />
        </mxCell>
        <mxCell id="cjA_gk0RnKk8VnKWEliR-48" value="" style="rhombus;whiteSpace=wrap;html=1;rounded=0;" vertex="1" parent="1">
          <mxGeometry x="282" y="370" width="38" height="40" as="geometry" />
        </mxCell>
        <mxCell id="cjA_gk0RnKk8VnKWEliR-52" value="0...n" style="text;html=1;strokeColor=none;fillColor=none;align=center;verticalAlign=middle;whiteSpace=wrap;rounded=0;" vertex="1" parent="1">
          <mxGeometry x="246" y="296" width="39" height="18" as="geometry" />
        </mxCell>
        <mxCell id="cjA_gk0RnKk8VnKWEliR-54" value="1...1" style="text;html=1;strokeColor=none;fillColor=none;align=center;verticalAlign=middle;whiteSpace=wrap;rounded=0;" vertex="1" parent="1">
          <mxGeometry x="302" y="460" width="39" height="18" as="geometry" />
        </mxCell>
        <mxCell id="cjA_gk0RnKk8VnKWEliR-55" value="&lt;h1&gt;&lt;font style=&quot;font-size: 12px; font-weight: normal;&quot;&gt;Una skill tendra una categoria&lt;/font&gt;&lt;/h1&gt;" style="text;html=1;strokeColor=none;fillColor=none;spacing=5;spacingTop=-20;whiteSpace=wrap;overflow=hidden;rounded=0;" vertex="1" parent="1">
          <mxGeometry x="97" y="560" width="170" height="40" as="geometry" />
        </mxCell>
        <mxCell id="cjA_gk0RnKk8VnKWEliR-56" value="Have" style="text;html=1;strokeColor=none;fillColor=none;align=center;verticalAlign=middle;whiteSpace=wrap;rounded=0;" vertex="1" parent="1">
          <mxGeometry x="310" y="360" width="60" height="30" as="geometry" />
        </mxCell>
        <mxCell id="cjA_gk0RnKk8VnKWEliR-57" value="Have" style="text;html=1;strokeColor=none;fillColor=none;align=center;verticalAlign=middle;whiteSpace=wrap;rounded=0;" vertex="1" parent="1">
          <mxGeometry x="152" y="127" width="60" height="30" as="geometry" />
        </mxCell>
        <mxCell id="cjA_gk0RnKk8VnKWEliR-63" style="edgeStyle=orthogonalEdgeStyle;rounded=0;orthogonalLoop=1;jettySize=auto;html=1;endArrow=oval;endFill=0;" edge="1" parent="1" source="cjA_gk0RnKk8VnKWEliR-58">
          <mxGeometry relative="1" as="geometry">
            <mxPoint x="711" y="360" as="targetPoint" />
          </mxGeometry>
        </mxCell>
        <mxCell id="cjA_gk0RnKk8VnKWEliR-78" value="" style="edgeStyle=orthogonalEdgeStyle;rounded=0;orthogonalLoop=1;jettySize=auto;html=1;endArrow=none;endFill=0;" edge="1" parent="1" source="cjA_gk0RnKk8VnKWEliR-58" target="cjA_gk0RnKk8VnKWEliR-77">
          <mxGeometry relative="1" as="geometry" />
        </mxCell>
        <mxCell id="cjA_gk0RnKk8VnKWEliR-58" value="Need" style="rounded=0;whiteSpace=wrap;html=1;" vertex="1" parent="1">
          <mxGeometry x="551" y="313" width="120" height="94" as="geometry" />
        </mxCell>
        <mxCell id="cjA_gk0RnKk8VnKWEliR-59" value="RequestDate&lt;br&gt;Status&lt;br&gt;&lt;span style=&quot;text-align: center;&quot;&gt;DateAccepted&lt;br&gt;SkillRequested&lt;br&gt;&lt;/span&gt;" style="text;html=1;strokeColor=none;fillColor=none;align=left;verticalAlign=middle;whiteSpace=wrap;rounded=0;" vertex="1" parent="1">
          <mxGeometry x="722" y="340" width="60" height="30" as="geometry" />
        </mxCell>
        <mxCell id="cjA_gk0RnKk8VnKWEliR-64" style="edgeStyle=orthogonalEdgeStyle;rounded=0;orthogonalLoop=1;jettySize=auto;html=1;endArrow=oval;endFill=0;" edge="1" parent="1">
          <mxGeometry relative="1" as="geometry">
            <mxPoint x="711" y="347" as="targetPoint" />
            <mxPoint x="671" y="347" as="sourcePoint" />
          </mxGeometry>
        </mxCell>
        <mxCell id="cjA_gk0RnKk8VnKWEliR-65" style="edgeStyle=orthogonalEdgeStyle;rounded=0;orthogonalLoop=1;jettySize=auto;html=1;endArrow=oval;endFill=0;" edge="1" parent="1">
          <mxGeometry relative="1" as="geometry">
            <mxPoint x="711" y="335" as="targetPoint" />
            <mxPoint x="671" y="335" as="sourcePoint" />
          </mxGeometry>
        </mxCell>
        <mxCell id="cjA_gk0RnKk8VnKWEliR-69" style="edgeStyle=orthogonalEdgeStyle;rounded=0;orthogonalLoop=1;jettySize=auto;html=1;exitX=1;exitY=0.5;exitDx=0;exitDy=0;entryX=0.5;entryY=0;entryDx=0;entryDy=0;endArrow=none;endFill=0;" edge="1" parent="1" source="cjA_gk0RnKk8VnKWEliR-67" target="cjA_gk0RnKk8VnKWEliR-58">
          <mxGeometry relative="1" as="geometry" />
        </mxCell>
        <mxCell id="cjA_gk0RnKk8VnKWEliR-67" value="" style="rhombus;whiteSpace=wrap;html=1;rounded=0;" vertex="1" parent="1">
          <mxGeometry x="477" y="245" width="30" height="30" as="geometry" />
        </mxCell>
        <mxCell id="cjA_gk0RnKk8VnKWEliR-70" value="0...n" style="text;html=1;strokeColor=none;fillColor=none;align=center;verticalAlign=middle;whiteSpace=wrap;rounded=0;" vertex="1" parent="1">
          <mxGeometry x="386" y="190" width="39" height="18" as="geometry" />
        </mxCell>
        <mxCell id="cjA_gk0RnKk8VnKWEliR-71" value="1...1" style="text;html=1;strokeColor=none;fillColor=none;align=center;verticalAlign=middle;whiteSpace=wrap;rounded=0;" vertex="1" parent="1">
          <mxGeometry x="570" y="294" width="39" height="18" as="geometry" />
        </mxCell>
        <mxCell id="cjA_gk0RnKk8VnKWEliR-72" value="Have" style="text;html=1;strokeColor=none;fillColor=none;align=center;verticalAlign=middle;whiteSpace=wrap;rounded=0;" vertex="1" parent="1">
          <mxGeometry x="490" y="230" width="60" height="30" as="geometry" />
        </mxCell>
        <mxCell id="cjA_gk0RnKk8VnKWEliR-73" style="edgeStyle=orthogonalEdgeStyle;rounded=0;orthogonalLoop=1;jettySize=auto;html=1;endArrow=oval;endFill=0;" edge="1" parent="1">
          <mxGeometry relative="1" as="geometry">
            <mxPoint x="712" y="376" as="targetPoint" />
            <mxPoint x="672" y="376" as="sourcePoint" />
          </mxGeometry>
        </mxCell>
        <mxCell id="cjA_gk0RnKk8VnKWEliR-77" value="" style="rhombus;whiteSpace=wrap;html=1;rounded=0;" vertex="1" parent="1">
          <mxGeometry x="380" y="342.5" width="35" height="35" as="geometry" />
        </mxCell>
        <mxCell id="cjA_gk0RnKk8VnKWEliR-80" value="1...1" style="text;html=1;strokeColor=none;fillColor=none;align=center;verticalAlign=middle;whiteSpace=wrap;rounded=0;" vertex="1" parent="1">
          <mxGeometry x="255.5" y="270" width="20" height="20" as="geometry" />
        </mxCell>
        <mxCell id="cjA_gk0RnKk8VnKWEliR-81" value="0...n" style="text;html=1;strokeColor=none;fillColor=none;align=center;verticalAlign=middle;whiteSpace=wrap;rounded=0;" vertex="1" parent="1">
          <mxGeometry x="520" y="340" width="20" height="20" as="geometry" />
        </mxCell>
        <mxCell id="cjA_gk0RnKk8VnKWEliR-83" value="Have" style="text;html=1;strokeColor=none;fillColor=none;align=center;verticalAlign=middle;whiteSpace=wrap;rounded=0;" vertex="1" parent="1">
          <mxGeometry x="395" y="330" width="60" height="30" as="geometry" />
        </mxCell>
        <mxCell id="cjA_gk0RnKk8VnKWEliR-84" style="edgeStyle=orthogonalEdgeStyle;rounded=0;orthogonalLoop=1;jettySize=auto;html=1;endArrow=oval;endFill=0;exitX=0.75;exitY=0;exitDx=0;exitDy=0;" edge="1" parent="1" source="cjA_gk0RnKk8VnKWEliR-1">
          <mxGeometry relative="1" as="geometry">
            <mxPoint x="482" y="66" as="targetPoint" />
            <mxPoint x="450" y="66" as="sourcePoint" />
            <Array as="points">
              <mxPoint x="450" y="70" />
              <mxPoint x="450" y="66" />
            </Array>
          </mxGeometry>
        </mxCell>
        <mxCell id="cjA_gk0RnKk8VnKWEliR-87" style="edgeStyle=orthogonalEdgeStyle;rounded=0;orthogonalLoop=1;jettySize=auto;html=1;exitX=1;exitY=0.25;exitDx=0;exitDy=0;endArrow=oval;endFill=1;" edge="1" parent="1" source="cjA_gk0RnKk8VnKWEliR-85">
          <mxGeometry relative="1" as="geometry">
            <mxPoint x="969" y="51.9" as="targetPoint" />
            <Array as="points">
              <mxPoint x="930" y="51.9" />
            </Array>
          </mxGeometry>
        </mxCell>
        <mxCell id="cjA_gk0RnKk8VnKWEliR-105" value="" style="edgeStyle=orthogonalEdgeStyle;rounded=0;orthogonalLoop=1;jettySize=auto;html=1;endArrow=none;endFill=0;entryX=0.5;entryY=0;entryDx=0;entryDy=0;" edge="1" parent="1" source="cjA_gk0RnKk8VnKWEliR-85" target="cjA_gk0RnKk8VnKWEliR-104">
          <mxGeometry relative="1" as="geometry">
            <Array as="points">
              <mxPoint x="721" y="81.9" />
              <mxPoint x="721" y="123.9" />
              <mxPoint x="721" y="123.9" />
            </Array>
          </mxGeometry>
        </mxCell>
        <mxCell id="cjA_gk0RnKk8VnKWEliR-85" value="Rating" style="rounded=0;whiteSpace=wrap;html=1;" vertex="1" parent="1">
          <mxGeometry x="810" y="36.9" width="120" height="90" as="geometry" />
        </mxCell>
        <mxCell id="cjA_gk0RnKk8VnKWEliR-86" value="RatingID&lt;br&gt;Stars&lt;br&gt;Comment" style="text;html=1;strokeColor=none;fillColor=none;align=left;verticalAlign=middle;whiteSpace=wrap;rounded=0;" vertex="1" parent="1">
          <mxGeometry x="978" y="49.9" width="60" height="30" as="geometry" />
        </mxCell>
        <mxCell id="cjA_gk0RnKk8VnKWEliR-88" style="edgeStyle=orthogonalEdgeStyle;rounded=0;orthogonalLoop=1;jettySize=auto;html=1;exitX=1;exitY=0.25;exitDx=0;exitDy=0;endArrow=oval;endFill=0;" edge="1" parent="1">
          <mxGeometry relative="1" as="geometry">
            <mxPoint x="970" y="62.9" as="targetPoint" />
            <mxPoint x="931" y="62.9" as="sourcePoint" />
          </mxGeometry>
        </mxCell>
        <mxCell id="cjA_gk0RnKk8VnKWEliR-89" style="edgeStyle=orthogonalEdgeStyle;rounded=0;orthogonalLoop=1;jettySize=auto;html=1;exitX=1;exitY=0.25;exitDx=0;exitDy=0;endArrow=oval;endFill=0;" edge="1" parent="1">
          <mxGeometry relative="1" as="geometry">
            <mxPoint x="970" y="75.9" as="targetPoint" />
            <mxPoint x="931" y="75.9" as="sourcePoint" />
          </mxGeometry>
        </mxCell>
        <mxCell id="cjA_gk0RnKk8VnKWEliR-96" value="" style="edgeStyle=orthogonalEdgeStyle;rounded=0;orthogonalLoop=1;jettySize=auto;html=1;endArrow=none;endFill=0;exitX=0;exitY=0.25;exitDx=0;exitDy=0;" edge="1" parent="1" source="cjA_gk0RnKk8VnKWEliR-1" target="cjA_gk0RnKk8VnKWEliR-95">
          <mxGeometry relative="1" as="geometry">
            <Array as="points">
              <mxPoint x="240" y="100" />
              <mxPoint x="240" y="25" />
            </Array>
          </mxGeometry>
        </mxCell>
        <mxCell id="cjA_gk0RnKk8VnKWEliR-97" style="edgeStyle=orthogonalEdgeStyle;rounded=0;orthogonalLoop=1;jettySize=auto;html=1;endArrow=none;endFill=0;" edge="1" parent="1" source="cjA_gk0RnKk8VnKWEliR-95">
          <mxGeometry relative="1" as="geometry">
            <mxPoint x="400" y="70" as="targetPoint" />
            <Array as="points">
              <mxPoint x="400" y="25" />
              <mxPoint x="400" y="70" />
            </Array>
          </mxGeometry>
        </mxCell>
        <mxCell id="cjA_gk0RnKk8VnKWEliR-95" value="" style="rhombus;whiteSpace=wrap;html=1;rounded=0;" vertex="1" parent="1">
          <mxGeometry x="297.5" y="6.9" width="29" height="30" as="geometry" />
        </mxCell>
        <mxCell id="cjA_gk0RnKk8VnKWEliR-98" value="Is favourite of" style="text;html=1;strokeColor=none;fillColor=none;align=center;verticalAlign=middle;whiteSpace=wrap;rounded=0;" vertex="1" parent="1">
          <mxGeometry x="267" y="-23.1" width="101" height="30" as="geometry" />
        </mxCell>
        <mxCell id="cjA_gk0RnKk8VnKWEliR-101" value="0...n" style="text;html=1;strokeColor=none;fillColor=none;align=center;verticalAlign=middle;whiteSpace=wrap;rounded=0;" vertex="1" parent="1">
          <mxGeometry x="292.5" y="79.9" width="39" height="18" as="geometry" />
        </mxCell>
        <mxCell id="cjA_gk0RnKk8VnKWEliR-106" style="edgeStyle=orthogonalEdgeStyle;rounded=0;orthogonalLoop=1;jettySize=auto;html=1;endArrow=none;endFill=0;" edge="1" parent="1" source="cjA_gk0RnKk8VnKWEliR-104">
          <mxGeometry relative="1" as="geometry">
            <Array as="points">
              <mxPoint x="722" y="282.9" />
            </Array>
            <mxPoint x="660" y="310" as="targetPoint" />
          </mxGeometry>
        </mxCell>
        <mxCell id="cjA_gk0RnKk8VnKWEliR-104" value="" style="rhombus;whiteSpace=wrap;html=1;rounded=0;" vertex="1" parent="1">
          <mxGeometry x="704" y="126.9" width="35" height="30" as="geometry" />
        </mxCell>
        <mxCell id="cjA_gk0RnKk8VnKWEliR-107" value="Have" style="text;html=1;strokeColor=none;fillColor=none;align=center;verticalAlign=middle;whiteSpace=wrap;rounded=0;" vertex="1" parent="1">
          <mxGeometry x="715" y="112.9" width="60" height="30" as="geometry" />
        </mxCell>
        <mxCell id="n1HhmX8kFLYhmsPR79n6-3" value="1...1" style="text;html=1;strokeColor=none;fillColor=none;align=center;verticalAlign=middle;whiteSpace=wrap;rounded=0;" vertex="1" parent="1">
          <mxGeometry x="752" y="49.9" width="60" height="30" as="geometry" />
        </mxCell>
        <mxCell id="n1HhmX8kFLYhmsPR79n6-4" value="1...n" style="text;html=1;strokeColor=none;fillColor=none;align=center;verticalAlign=middle;whiteSpace=wrap;rounded=0;" vertex="1" parent="1">
          <mxGeometry x="653" y="286" width="60" height="30" as="geometry" />
        </mxCell>
        <mxCell id="n1HhmX8kFLYhmsPR79n6-5" value="0...n" style="text;html=1;strokeColor=none;fillColor=none;align=center;verticalAlign=middle;whiteSpace=wrap;rounded=0;" vertex="1" parent="1">
          <mxGeometry x="361" y="49.900000000000006" width="39" height="18" as="geometry" />
        </mxCell>
        <mxCell id="n1HhmX8kFLYhmsPR79n6-6" style="edgeStyle=orthogonalEdgeStyle;rounded=0;orthogonalLoop=1;jettySize=auto;html=1;endArrow=oval;endFill=0;" edge="1" parent="1">
          <mxGeometry relative="1" as="geometry">
            <mxPoint x="480" y="50" as="targetPoint" />
            <mxPoint x="440" y="70" as="sourcePoint" />
            <Array as="points">
              <mxPoint x="450" y="70" />
              <mxPoint x="450" y="50" />
            </Array>
          </mxGeometry>
        </mxCell>
        <mxCell id="Iv4Cx4DrSURBsK4lQLtf-3" value="" style="rhombus;whiteSpace=wrap;html=1;rounded=0;" vertex="1" parent="1">
          <mxGeometry x="626" y="112.9" width="30" height="30" as="geometry" />
        </mxCell>
        <mxCell id="Iv4Cx4DrSURBsK4lQLtf-4" value="Apply" style="text;html=1;strokeColor=none;fillColor=none;align=center;verticalAlign=middle;whiteSpace=wrap;rounded=0;" vertex="1" parent="1">
          <mxGeometry x="640" y="82.9" width="60" height="30" as="geometry" />
        </mxCell>
        <mxCell id="Iv4Cx4DrSURBsK4lQLtf-5" value="&lt;h1&gt;&lt;font style=&quot;font-size: 12px; font-weight: normal;&quot;&gt;Apply se refeire a que un suuario se postula.&lt;/font&gt;&lt;/h1&gt;&lt;div&gt;&lt;font style=&quot;font-size: 12px; font-weight: normal;&quot;&gt;Se asume que para publicar servicios se hace desde la iniciacion del perfil&lt;/font&gt;&lt;/div&gt;" style="text;html=1;strokeColor=none;fillColor=none;spacing=5;spacingTop=-20;whiteSpace=wrap;overflow=hidden;rounded=0;" vertex="1" parent="1">
          <mxGeometry x="380" y="590" width="460" height="130" as="geometry" />
        </mxCell>
        <mxCell id="6k-OeE4OuMQT9iO2E70G-5" value="Name&lt;br&gt;Zone&lt;br&gt;LastName&lt;br&gt;Address&lt;br&gt;Date of Birth&lt;br&gt;Email&lt;br&gt;Password&lt;br&gt;Phone&lt;br&gt;Gender&lt;br&gt;IgAccount&lt;br&gt;CI" style="text;html=1;strokeColor=none;fillColor=none;align=left;verticalAlign=middle;whiteSpace=wrap;rounded=0;" vertex="1" parent="1">
          <mxGeometry x="691.5" y="-1250" width="88" height="139" as="geometry" />
        </mxCell>
        <mxCell id="6k-OeE4OuMQT9iO2E70G-6" style="edgeStyle=orthogonalEdgeStyle;rounded=0;orthogonalLoop=1;jettySize=auto;html=1;endArrow=oval;endFill=1;" edge="1" parent="1">
          <mxGeometry relative="1" as="geometry">
            <mxPoint x="419.5" y="-670" as="targetPoint" />
            <Array as="points">
              <mxPoint x="430" y="-670" />
            </Array>
            <mxPoint x="430" y="-660" as="sourcePoint" />
          </mxGeometry>
        </mxCell>
        <mxCell id="6k-OeE4OuMQT9iO2E70G-7" value="" style="edgeStyle=orthogonalEdgeStyle;rounded=0;orthogonalLoop=1;jettySize=auto;html=1;endArrow=none;endFill=0;entryX=0.5;entryY=0;entryDx=0;entryDy=0;" edge="1" parent="1" source="6k-OeE4OuMQT9iO2E70G-9" target="6k-OeE4OuMQT9iO2E70G-28">
          <mxGeometry relative="1" as="geometry">
            <Array as="points">
              <mxPoint x="479.5" y="-630" />
              <mxPoint x="479.5" y="-606" />
            </Array>
          </mxGeometry>
        </mxCell>
        <mxCell id="6k-OeE4OuMQT9iO2E70G-77" style="edgeStyle=orthogonalEdgeStyle;rounded=0;orthogonalLoop=1;jettySize=auto;html=1;exitX=1;exitY=0.5;exitDx=0;exitDy=0;entryX=0;entryY=0.5;entryDx=0;entryDy=0;endArrow=none;endFill=0;" edge="1" parent="1" source="6k-OeE4OuMQT9iO2E70G-9" target="6k-OeE4OuMQT9iO2E70G-75">
          <mxGeometry relative="1" as="geometry" />
        </mxCell>
        <mxCell id="6k-OeE4OuMQT9iO2E70G-9" value="Skill" style="rounded=0;whiteSpace=wrap;html=1;" vertex="1" parent="1">
          <mxGeometry x="440" y="-680" width="79.5" height="40" as="geometry" />
        </mxCell>
        <mxCell id="6k-OeE4OuMQT9iO2E70G-10" value="&lt;u&gt;Identification&lt;/u&gt;&lt;br&gt;Name&lt;br style=&quot;font-size: 8px;&quot;&gt;Description" style="text;html=1;strokeColor=none;fillColor=none;align=right;verticalAlign=middle;whiteSpace=wrap;rounded=0;fontSize=8;" vertex="1" parent="1">
          <mxGeometry x="363.75" y="-675" width="52.5" height="30" as="geometry" />
        </mxCell>
        <mxCell id="6k-OeE4OuMQT9iO2E70G-11" style="edgeStyle=orthogonalEdgeStyle;rounded=0;orthogonalLoop=1;jettySize=auto;html=1;endArrow=oval;endFill=0;" edge="1" parent="1">
          <mxGeometry relative="1" as="geometry">
            <mxPoint x="678.5" y="-1159" as="targetPoint" />
            <mxPoint x="648.5" y="-1159" as="sourcePoint" />
            <Array as="points">
              <mxPoint x="648.5" y="-1159" />
              <mxPoint x="678.5" y="-1159" />
            </Array>
          </mxGeometry>
        </mxCell>
        <mxCell id="6k-OeE4OuMQT9iO2E70G-12" style="edgeStyle=orthogonalEdgeStyle;rounded=0;orthogonalLoop=1;jettySize=auto;html=1;endArrow=none;endFill=0;exitX=0.5;exitY=0.969;exitDx=0;exitDy=0;exitPerimeter=0;" edge="1" parent="1" source="6k-OeE4OuMQT9iO2E70G-73" target="6k-OeE4OuMQT9iO2E70G-9">
          <mxGeometry relative="1" as="geometry">
            <mxPoint x="501.5" y="-746.9000000000001" as="sourcePoint" />
          </mxGeometry>
        </mxCell>
        <mxCell id="6k-OeE4OuMQT9iO2E70G-16" style="edgeStyle=orthogonalEdgeStyle;rounded=0;orthogonalLoop=1;jettySize=auto;html=1;endArrow=oval;endFill=0;" edge="1" parent="1">
          <mxGeometry relative="1" as="geometry">
            <mxPoint x="419.5" y="-660" as="targetPoint" />
            <mxPoint x="440" y="-659.9" as="sourcePoint" />
            <Array as="points">
              <mxPoint x="430" y="-659.9" />
              <mxPoint x="430" y="-659.9" />
            </Array>
          </mxGeometry>
        </mxCell>
        <mxCell id="6k-OeE4OuMQT9iO2E70G-17" style="edgeStyle=orthogonalEdgeStyle;rounded=0;orthogonalLoop=1;jettySize=auto;html=1;endArrow=oval;endFill=0;" edge="1" parent="1">
          <mxGeometry relative="1" as="geometry">
            <mxPoint x="678.5" y="-1171" as="targetPoint" />
            <mxPoint x="648.5" y="-1171" as="sourcePoint" />
            <Array as="points">
              <mxPoint x="648.5" y="-1171" />
              <mxPoint x="678.5" y="-1171" />
            </Array>
          </mxGeometry>
        </mxCell>
        <mxCell id="6k-OeE4OuMQT9iO2E70G-18" style="edgeStyle=orthogonalEdgeStyle;rounded=0;orthogonalLoop=1;jettySize=auto;html=1;endArrow=oval;endFill=0;" edge="1" parent="1">
          <mxGeometry relative="1" as="geometry">
            <mxPoint x="679.5" y="-1184" as="targetPoint" />
            <mxPoint x="649.5" y="-1184" as="sourcePoint" />
            <Array as="points">
              <mxPoint x="649.5" y="-1184" />
              <mxPoint x="679.5" y="-1184" />
            </Array>
          </mxGeometry>
        </mxCell>
        <mxCell id="6k-OeE4OuMQT9iO2E70G-19" style="edgeStyle=orthogonalEdgeStyle;rounded=0;orthogonalLoop=1;jettySize=auto;html=1;endArrow=oval;endFill=0;" edge="1" parent="1">
          <mxGeometry relative="1" as="geometry">
            <mxPoint x="678.5" y="-1143" as="targetPoint" />
            <mxPoint x="648.5" y="-1143" as="sourcePoint" />
            <Array as="points">
              <mxPoint x="648.5" y="-1143" />
              <mxPoint x="678.5" y="-1143" />
            </Array>
          </mxGeometry>
        </mxCell>
        <mxCell id="6k-OeE4OuMQT9iO2E70G-20" style="edgeStyle=orthogonalEdgeStyle;rounded=0;orthogonalLoop=1;jettySize=auto;html=1;endArrow=oval;endFill=0;" edge="1" parent="1">
          <mxGeometry relative="1" as="geometry">
            <mxPoint x="678.5" y="-1129" as="targetPoint" />
            <mxPoint x="648.5" y="-1129" as="sourcePoint" />
            <Array as="points">
              <mxPoint x="648.5" y="-1129" />
              <mxPoint x="678.5" y="-1129" />
            </Array>
          </mxGeometry>
        </mxCell>
        <mxCell id="6k-OeE4OuMQT9iO2E70G-21" style="edgeStyle=orthogonalEdgeStyle;rounded=0;orthogonalLoop=1;jettySize=auto;html=1;endArrow=oval;endFill=1;" edge="1" parent="1">
          <mxGeometry relative="1" as="geometry">
            <mxPoint x="678.5" y="-1114" as="targetPoint" />
            <mxPoint x="648.5" y="-1114" as="sourcePoint" />
            <Array as="points">
              <mxPoint x="648.5" y="-1114" />
              <mxPoint x="678.5" y="-1114" />
            </Array>
          </mxGeometry>
        </mxCell>
        <mxCell id="6k-OeE4OuMQT9iO2E70G-22" style="edgeStyle=orthogonalEdgeStyle;rounded=0;orthogonalLoop=1;jettySize=auto;html=1;endArrow=oval;endFill=0;" edge="1" parent="1">
          <mxGeometry relative="1" as="geometry">
            <mxPoint x="679.5" y="-1196" as="targetPoint" />
            <mxPoint x="649.5" y="-1196" as="sourcePoint" />
            <Array as="points">
              <mxPoint x="649.5" y="-1196" />
              <mxPoint x="679.5" y="-1196" />
            </Array>
          </mxGeometry>
        </mxCell>
        <mxCell id="6k-OeE4OuMQT9iO2E70G-23" style="edgeStyle=orthogonalEdgeStyle;rounded=0;orthogonalLoop=1;jettySize=auto;html=1;endArrow=oval;endFill=0;" edge="1" parent="1">
          <mxGeometry relative="1" as="geometry">
            <mxPoint x="679.5" y="-1210" as="targetPoint" />
            <mxPoint x="649.5" y="-1210" as="sourcePoint" />
            <Array as="points">
              <mxPoint x="649.5" y="-1210" />
              <mxPoint x="679.5" y="-1210" />
            </Array>
          </mxGeometry>
        </mxCell>
        <mxCell id="6k-OeE4OuMQT9iO2E70G-25" style="edgeStyle=orthogonalEdgeStyle;rounded=0;orthogonalLoop=1;jettySize=auto;html=1;exitX=0.5;exitY=0;exitDx=0;exitDy=0;entryX=0.5;entryY=1;entryDx=0;entryDy=0;endArrow=none;endFill=0;" edge="1" parent="1" source="6k-OeE4OuMQT9iO2E70G-26" target="6k-OeE4OuMQT9iO2E70G-28">
          <mxGeometry relative="1" as="geometry" />
        </mxCell>
        <mxCell id="6k-OeE4OuMQT9iO2E70G-26" value="Category" style="rounded=0;whiteSpace=wrap;html=1;" vertex="1" parent="1">
          <mxGeometry x="440" y="-519.9" width="79.5" height="39.9" as="geometry" />
        </mxCell>
        <mxCell id="6k-OeE4OuMQT9iO2E70G-28" value="belongs" style="rhombus;whiteSpace=wrap;html=1;rounded=0;fontSize=8;" vertex="1" parent="1">
          <mxGeometry x="460" y="-600" width="40" height="40" as="geometry" />
        </mxCell>
        <mxCell id="6k-OeE4OuMQT9iO2E70G-78" style="edgeStyle=orthogonalEdgeStyle;rounded=0;orthogonalLoop=1;jettySize=auto;html=1;exitX=0;exitY=0.5;exitDx=0;exitDy=0;entryX=1;entryY=0.5;entryDx=0;entryDy=0;endArrow=none;endFill=0;" edge="1" parent="1" source="6k-OeE4OuMQT9iO2E70G-35" target="6k-OeE4OuMQT9iO2E70G-75">
          <mxGeometry relative="1" as="geometry" />
        </mxCell>
        <mxCell id="6k-OeE4OuMQT9iO2E70G-35" value="Need" style="rounded=0;whiteSpace=wrap;html=1;" vertex="1" parent="1">
          <mxGeometry x="680.5" y="-680" width="80" height="40" as="geometry" />
        </mxCell>
        <mxCell id="6k-OeE4OuMQT9iO2E70G-49" style="edgeStyle=orthogonalEdgeStyle;rounded=0;orthogonalLoop=1;jettySize=auto;html=1;endArrow=oval;endFill=0;exitX=0.75;exitY=0;exitDx=0;exitDy=0;" edge="1" parent="1">
          <mxGeometry relative="1" as="geometry">
            <mxPoint x="680.5" y="-1223" as="targetPoint" />
            <mxPoint x="618.5" y="-1219" as="sourcePoint" />
            <Array as="points">
              <mxPoint x="648.5" y="-1219" />
              <mxPoint x="648.5" y="-1223" />
            </Array>
          </mxGeometry>
        </mxCell>
        <mxCell id="6k-OeE4OuMQT9iO2E70G-67" style="edgeStyle=orthogonalEdgeStyle;rounded=0;orthogonalLoop=1;jettySize=auto;html=1;endArrow=oval;endFill=0;" edge="1" parent="1">
          <mxGeometry relative="1" as="geometry">
            <mxPoint x="678.5" y="-1239" as="targetPoint" />
            <mxPoint x="638.5" y="-1219" as="sourcePoint" />
            <Array as="points">
              <mxPoint x="648.5" y="-1219" />
              <mxPoint x="648.5" y="-1239" />
            </Array>
          </mxGeometry>
        </mxCell>
        <mxCell id="6k-OeE4OuMQT9iO2E70G-70" value="VERSIÓN MAXI" style="text;html=1;strokeColor=none;fillColor=none;align=center;verticalAlign=middle;whiteSpace=wrap;rounded=0;fontSize=34;fontStyle=1" vertex="1" parent="1">
          <mxGeometry x="550" y="-1320" width="370" height="30" as="geometry" />
        </mxCell>
        <mxCell id="6k-OeE4OuMQT9iO2E70G-97" style="edgeStyle=orthogonalEdgeStyle;rounded=0;orthogonalLoop=1;jettySize=auto;html=1;exitX=1;exitY=0.5;exitDx=0;exitDy=0;entryX=0;entryY=0.5;entryDx=0;entryDy=0;endArrow=none;endFill=0;" edge="1" parent="1" source="6k-OeE4OuMQT9iO2E70G-71" target="6k-OeE4OuMQT9iO2E70G-96">
          <mxGeometry relative="1" as="geometry" />
        </mxCell>
        <mxCell id="6k-OeE4OuMQT9iO2E70G-71" value="Limitation" style="rounded=0;whiteSpace=wrap;html=1;" vertex="1" parent="1">
          <mxGeometry x="439" y="-880" width="80" height="40.1" as="geometry" />
        </mxCell>
        <mxCell id="6k-OeE4OuMQT9iO2E70G-72" value="(0,n)" style="text;html=1;strokeColor=none;fillColor=none;align=center;verticalAlign=middle;whiteSpace=wrap;rounded=0;fontSize=8;" vertex="1" parent="1">
          <mxGeometry x="460" y="-698" width="19" height="18" as="geometry" />
        </mxCell>
        <mxCell id="6k-OeE4OuMQT9iO2E70G-73" value="have" style="rhombus;whiteSpace=wrap;html=1;rounded=0;fontSize=8;" vertex="1" parent="1">
          <mxGeometry x="460" y="-760" width="40" height="40" as="geometry" />
        </mxCell>
        <mxCell id="6k-OeE4OuMQT9iO2E70G-75" value="requests" style="rhombus;whiteSpace=wrap;html=1;rounded=0;fontSize=8;" vertex="1" parent="1">
          <mxGeometry x="580" y="-680" width="40" height="40" as="geometry" />
        </mxCell>
        <mxCell id="6k-OeE4OuMQT9iO2E70G-79" value="(1,1)" style="text;html=1;strokeColor=none;fillColor=none;align=center;verticalAlign=middle;whiteSpace=wrap;rounded=0;fontSize=8;" vertex="1" parent="1">
          <mxGeometry x="520" y="-678" width="20" height="18" as="geometry" />
        </mxCell>
        <mxCell id="6k-OeE4OuMQT9iO2E70G-80" value="(0,n)" style="text;html=1;strokeColor=none;fillColor=none;align=center;verticalAlign=middle;whiteSpace=wrap;rounded=0;fontSize=8;" vertex="1" parent="1">
          <mxGeometry x="480" y="-640" width="20" height="18" as="geometry" />
        </mxCell>
        <mxCell id="6k-OeE4OuMQT9iO2E70G-81" value="(1,1)" style="text;html=1;strokeColor=none;fillColor=none;align=center;verticalAlign=middle;whiteSpace=wrap;rounded=0;fontSize=8;" vertex="1" parent="1">
          <mxGeometry x="460" y="-537.9" width="20" height="18" as="geometry" />
        </mxCell>
        <mxCell id="6k-OeE4OuMQT9iO2E70G-82" value="(0,n)" style="text;html=1;strokeColor=none;fillColor=none;align=center;verticalAlign=middle;whiteSpace=wrap;rounded=0;fontSize=8;" vertex="1" parent="1">
          <mxGeometry x="660" y="-660" width="20.5" height="18" as="geometry" />
        </mxCell>
        <mxCell id="6k-OeE4OuMQT9iO2E70G-83" style="edgeStyle=orthogonalEdgeStyle;rounded=0;orthogonalLoop=1;jettySize=auto;html=1;endArrow=oval;endFill=0;exitX=1;exitY=0.5;exitDx=0;exitDy=0;" edge="1" parent="1" source="6k-OeE4OuMQT9iO2E70G-35">
          <mxGeometry relative="1" as="geometry">
            <mxPoint x="780" y="-660" as="targetPoint" />
            <Array as="points">
              <mxPoint x="770" y="-660" />
              <mxPoint x="770" y="-660" />
            </Array>
            <mxPoint x="940" y="-630" as="sourcePoint" />
          </mxGeometry>
        </mxCell>
        <mxCell id="6k-OeE4OuMQT9iO2E70G-84" value="&lt;u&gt;Identification&lt;/u&gt;&lt;br style=&quot;font-size: 8px;&quot;&gt;Name&lt;br style=&quot;font-size: 8px;&quot;&gt;Description&lt;br style=&quot;font-size: 8px;&quot;&gt;Status&lt;br style=&quot;font-size: 8px;&quot;&gt;Date" style="text;html=1;strokeColor=none;fillColor=none;align=left;verticalAlign=middle;whiteSpace=wrap;rounded=0;fontSize=8;" vertex="1" parent="1">
          <mxGeometry x="782" y="-685" width="58" height="50" as="geometry" />
        </mxCell>
        <mxCell id="6k-OeE4OuMQT9iO2E70G-86" style="edgeStyle=orthogonalEdgeStyle;rounded=0;orthogonalLoop=1;jettySize=auto;html=1;endArrow=oval;endFill=1;" edge="1" parent="1">
          <mxGeometry relative="1" as="geometry">
            <mxPoint x="779.5" y="-680" as="targetPoint" />
            <Array as="points">
              <mxPoint x="769.5" y="-680" />
              <mxPoint x="769.5" y="-680" />
            </Array>
            <mxPoint x="770" y="-660" as="sourcePoint" />
          </mxGeometry>
        </mxCell>
        <mxCell id="6k-OeE4OuMQT9iO2E70G-87" style="edgeStyle=orthogonalEdgeStyle;rounded=0;orthogonalLoop=1;jettySize=auto;html=1;endArrow=oval;endFill=0;labelBackgroundColor=default;fontColor=default;" edge="1" parent="1">
          <mxGeometry relative="1" as="geometry">
            <mxPoint x="780" y="-670" as="targetPoint" />
            <Array as="points">
              <mxPoint x="770" y="-670" />
              <mxPoint x="770" y="-670" />
            </Array>
            <mxPoint x="770" y="-660" as="sourcePoint" />
          </mxGeometry>
        </mxCell>
        <mxCell id="6k-OeE4OuMQT9iO2E70G-88" style="edgeStyle=orthogonalEdgeStyle;rounded=0;orthogonalLoop=1;jettySize=auto;html=1;endArrow=oval;endFill=0;" edge="1" parent="1">
          <mxGeometry relative="1" as="geometry">
            <mxPoint x="780" y="-650.02" as="targetPoint" />
            <Array as="points">
              <mxPoint x="770" y="-650.02" />
              <mxPoint x="770" y="-650.02" />
            </Array>
            <mxPoint x="770" y="-660" as="sourcePoint" />
          </mxGeometry>
        </mxCell>
        <mxCell id="6k-OeE4OuMQT9iO2E70G-89" style="edgeStyle=orthogonalEdgeStyle;rounded=0;orthogonalLoop=1;jettySize=auto;html=1;endArrow=oval;endFill=0;" edge="1" parent="1">
          <mxGeometry relative="1" as="geometry">
            <mxPoint x="780" y="-640" as="targetPoint" />
            <Array as="points">
              <mxPoint x="770" y="-640" />
              <mxPoint x="770" y="-640" />
            </Array>
            <mxPoint x="770" y="-660" as="sourcePoint" />
          </mxGeometry>
        </mxCell>
        <mxCell id="6k-OeE4OuMQT9iO2E70G-90" style="edgeStyle=orthogonalEdgeStyle;rounded=0;orthogonalLoop=1;jettySize=auto;html=1;endArrow=oval;endFill=0;" edge="1" parent="1">
          <mxGeometry relative="1" as="geometry">
            <mxPoint x="419.5" y="-650.05" as="targetPoint" />
            <mxPoint x="430" y="-660" as="sourcePoint" />
            <Array as="points">
              <mxPoint x="430" y="-649.9499999999999" />
              <mxPoint x="430" y="-649.9499999999999" />
            </Array>
          </mxGeometry>
        </mxCell>
        <mxCell id="6k-OeE4OuMQT9iO2E70G-92" style="edgeStyle=orthogonalEdgeStyle;rounded=0;orthogonalLoop=1;jettySize=auto;html=1;endArrow=oval;endFill=1;" edge="1" parent="1">
          <mxGeometry relative="1" as="geometry">
            <mxPoint x="419.5" y="-509.95" as="targetPoint" />
            <Array as="points">
              <mxPoint x="430" y="-509.95" />
            </Array>
            <mxPoint x="430" y="-499.95" as="sourcePoint" />
          </mxGeometry>
        </mxCell>
        <mxCell id="6k-OeE4OuMQT9iO2E70G-93" value="&lt;u&gt;Identification&lt;/u&gt;&lt;br&gt;Name&lt;br style=&quot;font-size: 8px;&quot;&gt;Description" style="text;html=1;strokeColor=none;fillColor=none;align=right;verticalAlign=middle;whiteSpace=wrap;rounded=0;fontSize=8;" vertex="1" parent="1">
          <mxGeometry x="363.75" y="-514.95" width="52.5" height="30" as="geometry" />
        </mxCell>
        <mxCell id="6k-OeE4OuMQT9iO2E70G-94" style="edgeStyle=orthogonalEdgeStyle;rounded=0;orthogonalLoop=1;jettySize=auto;html=1;endArrow=oval;endFill=0;" edge="1" parent="1">
          <mxGeometry relative="1" as="geometry">
            <mxPoint x="419.5" y="-499.95" as="targetPoint" />
            <mxPoint x="440" y="-499.84999999999997" as="sourcePoint" />
            <Array as="points">
              <mxPoint x="430" y="-499.84999999999997" />
              <mxPoint x="430" y="-499.84999999999997" />
            </Array>
          </mxGeometry>
        </mxCell>
        <mxCell id="6k-OeE4OuMQT9iO2E70G-95" style="edgeStyle=orthogonalEdgeStyle;rounded=0;orthogonalLoop=1;jettySize=auto;html=1;endArrow=oval;endFill=0;" edge="1" parent="1">
          <mxGeometry relative="1" as="geometry">
            <mxPoint x="419.5" y="-489.99999999999994" as="targetPoint" />
            <mxPoint x="430" y="-499.95" as="sourcePoint" />
            <Array as="points">
              <mxPoint x="430" y="-489.8999999999999" />
              <mxPoint x="430" y="-489.8999999999999" />
            </Array>
          </mxGeometry>
        </mxCell>
        <mxCell id="6k-OeE4OuMQT9iO2E70G-96" value="have" style="rhombus;whiteSpace=wrap;html=1;rounded=0;fontSize=8;" vertex="1" parent="1">
          <mxGeometry x="570" y="-880" width="40" height="40" as="geometry" />
        </mxCell>
        <mxCell id="6k-OeE4OuMQT9iO2E70G-98" value="(0,n)" style="text;html=1;strokeColor=none;fillColor=none;align=center;verticalAlign=middle;whiteSpace=wrap;rounded=0;fontSize=8;" vertex="1" parent="1">
          <mxGeometry x="517.5" y="-860" width="22.5" height="18" as="geometry" />
        </mxCell>
        <mxCell id="6k-OeE4OuMQT9iO2E70G-100" style="edgeStyle=orthogonalEdgeStyle;rounded=0;orthogonalLoop=1;jettySize=auto;html=1;exitX=0;exitY=0.25;exitDx=0;exitDy=0;entryX=1;entryY=0.5;entryDx=0;entryDy=0;endArrow=none;endFill=0;" edge="1" parent="1" source="6k-OeE4OuMQT9iO2E70G-99" target="6k-OeE4OuMQT9iO2E70G-96">
          <mxGeometry relative="1" as="geometry" />
        </mxCell>
        <mxCell id="6k-OeE4OuMQT9iO2E70G-101" style="edgeStyle=orthogonalEdgeStyle;rounded=0;orthogonalLoop=1;jettySize=auto;html=1;exitX=0;exitY=0.75;exitDx=0;exitDy=0;entryX=0.5;entryY=0;entryDx=0;entryDy=0;endArrow=none;endFill=0;" edge="1" parent="1" source="6k-OeE4OuMQT9iO2E70G-99" target="6k-OeE4OuMQT9iO2E70G-73">
          <mxGeometry relative="1" as="geometry" />
        </mxCell>
        <mxCell id="6k-OeE4OuMQT9iO2E70G-113" style="edgeStyle=orthogonalEdgeStyle;rounded=0;orthogonalLoop=1;jettySize=auto;html=1;exitX=0.25;exitY=0;exitDx=0;exitDy=0;entryX=0;entryY=0.5;entryDx=0;entryDy=0;endArrow=none;endFill=0;" edge="1" parent="1" source="6k-OeE4OuMQT9iO2E70G-99" target="6k-OeE4OuMQT9iO2E70G-112">
          <mxGeometry relative="1" as="geometry">
            <Array as="points">
              <mxPoint x="690" y="-900" />
              <mxPoint x="690" y="-900" />
              <mxPoint x="690" y="-940" />
            </Array>
          </mxGeometry>
        </mxCell>
        <mxCell id="6k-OeE4OuMQT9iO2E70G-147" style="edgeStyle=orthogonalEdgeStyle;rounded=0;orthogonalLoop=1;jettySize=auto;html=1;exitX=1;exitY=0;exitDx=0;exitDy=0;entryX=0;entryY=0.5;entryDx=0;entryDy=0;endArrow=none;endFill=0;" edge="1" parent="1" source="6k-OeE4OuMQT9iO2E70G-99" target="6k-OeE4OuMQT9iO2E70G-144">
          <mxGeometry relative="1" as="geometry">
            <Array as="points">
              <mxPoint x="800" y="-880" />
              <mxPoint x="800" y="-1020" />
            </Array>
          </mxGeometry>
        </mxCell>
        <mxCell id="6k-OeE4OuMQT9iO2E70G-154" style="edgeStyle=orthogonalEdgeStyle;rounded=0;orthogonalLoop=1;jettySize=auto;html=1;exitX=1;exitY=0;exitDx=0;exitDy=0;entryX=0;entryY=0.5;entryDx=0;entryDy=0;endArrow=none;endFill=0;" edge="1" parent="1" source="6k-OeE4OuMQT9iO2E70G-99" target="6k-OeE4OuMQT9iO2E70G-151">
          <mxGeometry relative="1" as="geometry">
            <Array as="points">
              <mxPoint x="780" y="-1100" />
            </Array>
          </mxGeometry>
        </mxCell>
        <mxCell id="6k-OeE4OuMQT9iO2E70G-166" style="edgeStyle=orthogonalEdgeStyle;rounded=0;orthogonalLoop=1;jettySize=auto;html=1;exitX=0;exitY=0;exitDx=0;exitDy=0;entryX=0;entryY=0.5;entryDx=0;entryDy=0;endArrow=none;endFill=0;" edge="1" parent="1" source="6k-OeE4OuMQT9iO2E70G-99" target="6k-OeE4OuMQT9iO2E70G-158">
          <mxGeometry relative="1" as="geometry">
            <Array as="points">
              <mxPoint x="660" y="-940" />
              <mxPoint x="660" y="-940" />
              <mxPoint x="660" y="-1000" />
            </Array>
          </mxGeometry>
        </mxCell>
        <mxCell id="6k-OeE4OuMQT9iO2E70G-170" style="edgeStyle=orthogonalEdgeStyle;rounded=0;orthogonalLoop=1;jettySize=auto;html=1;exitX=0;exitY=0;exitDx=0;exitDy=0;entryX=0.5;entryY=1;entryDx=0;entryDy=0;endArrow=none;endFill=0;" edge="1" parent="1" source="6k-OeE4OuMQT9iO2E70G-99" target="6k-OeE4OuMQT9iO2E70G-169">
          <mxGeometry relative="1" as="geometry">
            <Array as="points">
              <mxPoint x="620" y="-880" />
              <mxPoint x="620" y="-920" />
              <mxPoint x="440" y="-920" />
            </Array>
          </mxGeometry>
        </mxCell>
        <mxCell id="6k-OeE4OuMQT9iO2E70G-99" value="&lt;font style=&quot;font-size: 14px;&quot;&gt;User&lt;/font&gt;" style="rounded=0;whiteSpace=wrap;html=1;" vertex="1" parent="1">
          <mxGeometry x="660.5" y="-880" width="120" height="80" as="geometry" />
        </mxCell>
        <mxCell id="6k-OeE4OuMQT9iO2E70G-102" value="(0,n)" style="text;html=1;strokeColor=none;fillColor=none;align=center;verticalAlign=middle;whiteSpace=wrap;rounded=0;fontSize=8;" vertex="1" parent="1">
          <mxGeometry x="640" y="-820" width="20.5" height="18" as="geometry" />
        </mxCell>
        <mxCell id="6k-OeE4OuMQT9iO2E70G-103" value="(0,n)" style="text;html=1;strokeColor=none;fillColor=none;align=center;verticalAlign=middle;whiteSpace=wrap;rounded=0;fontSize=8;" vertex="1" parent="1">
          <mxGeometry x="640" y="-878" width="20.5" height="18" as="geometry" />
        </mxCell>
        <mxCell id="6k-OeE4OuMQT9iO2E70G-106" style="edgeStyle=orthogonalEdgeStyle;rounded=0;orthogonalLoop=1;jettySize=auto;html=1;exitX=0.5;exitY=1;exitDx=0;exitDy=0;entryX=0.25;entryY=0;entryDx=0;entryDy=0;endArrow=none;endFill=0;" edge="1" parent="1" target="6k-OeE4OuMQT9iO2E70G-35">
          <mxGeometry relative="1" as="geometry">
            <mxPoint x="700.5" y="-760" as="sourcePoint" />
          </mxGeometry>
        </mxCell>
        <mxCell id="6k-OeE4OuMQT9iO2E70G-108" style="edgeStyle=orthogonalEdgeStyle;rounded=0;orthogonalLoop=1;jettySize=auto;html=1;exitX=0.5;exitY=0;exitDx=0;exitDy=0;entryX=0.333;entryY=0.999;entryDx=0;entryDy=0;entryPerimeter=0;endArrow=none;endFill=0;" edge="1" parent="1" source="6k-OeE4OuMQT9iO2E70G-104" target="6k-OeE4OuMQT9iO2E70G-99">
          <mxGeometry relative="1" as="geometry" />
        </mxCell>
        <mxCell id="6k-OeE4OuMQT9iO2E70G-104" value="creates" style="rhombus;whiteSpace=wrap;html=1;rounded=0;fontSize=8;" vertex="1" parent="1">
          <mxGeometry x="680.5" y="-760" width="40" height="40" as="geometry" />
        </mxCell>
        <mxCell id="6k-OeE4OuMQT9iO2E70G-107" style="edgeStyle=orthogonalEdgeStyle;rounded=0;orthogonalLoop=1;jettySize=auto;html=1;exitX=0.5;exitY=1;exitDx=0;exitDy=0;entryX=0.75;entryY=0;entryDx=0;entryDy=0;endArrow=none;endFill=0;" edge="1" parent="1" target="6k-OeE4OuMQT9iO2E70G-35">
          <mxGeometry relative="1" as="geometry">
            <mxPoint x="740.5" y="-760" as="sourcePoint" />
          </mxGeometry>
        </mxCell>
        <mxCell id="6k-OeE4OuMQT9iO2E70G-109" style="edgeStyle=orthogonalEdgeStyle;rounded=0;orthogonalLoop=1;jettySize=auto;html=1;exitX=0.5;exitY=0;exitDx=0;exitDy=0;entryX=0.666;entryY=0.999;entryDx=0;entryDy=0;entryPerimeter=0;endArrow=none;endFill=0;" edge="1" parent="1" source="6k-OeE4OuMQT9iO2E70G-105" target="6k-OeE4OuMQT9iO2E70G-99">
          <mxGeometry relative="1" as="geometry" />
        </mxCell>
        <mxCell id="6k-OeE4OuMQT9iO2E70G-105" value="apply" style="rhombus;whiteSpace=wrap;html=1;rounded=0;fontSize=8;" vertex="1" parent="1">
          <mxGeometry x="720.5" y="-760" width="40" height="40" as="geometry" />
        </mxCell>
        <mxCell id="6k-OeE4OuMQT9iO2E70G-110" value="(0,n)" style="text;html=1;strokeColor=none;fillColor=none;align=center;verticalAlign=middle;whiteSpace=wrap;rounded=0;fontSize=8;" vertex="1" parent="1">
          <mxGeometry x="680" y="-800" width="20" height="18" as="geometry" />
        </mxCell>
        <mxCell id="6k-OeE4OuMQT9iO2E70G-111" value="(0,n)" style="text;html=1;strokeColor=none;fillColor=none;align=center;verticalAlign=middle;whiteSpace=wrap;rounded=0;fontSize=8;" vertex="1" parent="1">
          <mxGeometry x="740.5" y="-800" width="19.5" height="18" as="geometry" />
        </mxCell>
        <mxCell id="6k-OeE4OuMQT9iO2E70G-114" style="edgeStyle=orthogonalEdgeStyle;rounded=0;orthogonalLoop=1;jettySize=auto;html=1;exitX=0.5;exitY=1;exitDx=0;exitDy=0;entryX=0.5;entryY=0;entryDx=0;entryDy=0;endArrow=none;endFill=0;" edge="1" parent="1" source="6k-OeE4OuMQT9iO2E70G-112" target="6k-OeE4OuMQT9iO2E70G-99">
          <mxGeometry relative="1" as="geometry">
            <Array as="points">
              <mxPoint x="720" y="-880" />
            </Array>
          </mxGeometry>
        </mxCell>
        <mxCell id="6k-OeE4OuMQT9iO2E70G-112" value="is favourite" style="rhombus;whiteSpace=wrap;html=1;rounded=0;fontSize=8;" vertex="1" parent="1">
          <mxGeometry x="700" y="-960" width="40" height="40" as="geometry" />
        </mxCell>
        <mxCell id="6k-OeE4OuMQT9iO2E70G-115" value="(0,n)" style="text;html=1;strokeColor=none;fillColor=none;align=center;verticalAlign=middle;whiteSpace=wrap;rounded=0;fontSize=8;" vertex="1" parent="1">
          <mxGeometry x="670" y="-898" width="21" height="18" as="geometry" />
        </mxCell>
        <mxCell id="6k-OeE4OuMQT9iO2E70G-116" value="(0,n)" style="text;html=1;strokeColor=none;fillColor=none;align=center;verticalAlign=middle;whiteSpace=wrap;rounded=0;fontSize=8;" vertex="1" parent="1">
          <mxGeometry x="700.5" y="-897.9" width="20" height="18" as="geometry" />
        </mxCell>
        <mxCell id="6k-OeE4OuMQT9iO2E70G-117" value="Rating" style="rounded=0;whiteSpace=wrap;html=1;" vertex="1" parent="1">
          <mxGeometry x="920" y="-840" width="80" height="40" as="geometry" />
        </mxCell>
        <mxCell id="6k-OeE4OuMQT9iO2E70G-118" style="edgeStyle=orthogonalEdgeStyle;rounded=0;orthogonalLoop=1;jettySize=auto;html=1;endArrow=oval;endFill=0;exitX=1;exitY=0.5;exitDx=0;exitDy=0;" edge="1" parent="1" source="6k-OeE4OuMQT9iO2E70G-117">
          <mxGeometry relative="1" as="geometry">
            <mxPoint x="1019.5" y="-820" as="targetPoint" />
            <Array as="points">
              <mxPoint x="1009.5" y="-820" />
              <mxPoint x="1009.5" y="-820" />
            </Array>
            <mxPoint x="1179.5" y="-790" as="sourcePoint" />
          </mxGeometry>
        </mxCell>
        <mxCell id="6k-OeE4OuMQT9iO2E70G-119" value="&lt;u&gt;Identification&lt;/u&gt;&lt;br style=&quot;font-size: 8px;&quot;&gt;Stars&lt;br&gt;Comment" style="text;html=1;strokeColor=none;fillColor=none;align=left;verticalAlign=middle;whiteSpace=wrap;rounded=0;fontSize=8;" vertex="1" parent="1">
          <mxGeometry x="1021.5" y="-845" width="58" height="50" as="geometry" />
        </mxCell>
        <mxCell id="6k-OeE4OuMQT9iO2E70G-120" style="edgeStyle=orthogonalEdgeStyle;rounded=0;orthogonalLoop=1;jettySize=auto;html=1;endArrow=oval;endFill=1;" edge="1" parent="1">
          <mxGeometry relative="1" as="geometry">
            <mxPoint x="1019" y="-830" as="targetPoint" />
            <Array as="points">
              <mxPoint x="1010" y="-830" />
            </Array>
            <mxPoint x="1009.5" y="-820" as="sourcePoint" />
          </mxGeometry>
        </mxCell>
        <mxCell id="6k-OeE4OuMQT9iO2E70G-122" style="edgeStyle=orthogonalEdgeStyle;rounded=0;orthogonalLoop=1;jettySize=auto;html=1;endArrow=oval;endFill=0;" edge="1" parent="1">
          <mxGeometry relative="1" as="geometry">
            <mxPoint x="1019.5" y="-810.02" as="targetPoint" />
            <Array as="points">
              <mxPoint x="1009.5" y="-810.02" />
              <mxPoint x="1009.5" y="-810.02" />
            </Array>
            <mxPoint x="1009.5" y="-820" as="sourcePoint" />
          </mxGeometry>
        </mxCell>
        <mxCell id="6k-OeE4OuMQT9iO2E70G-125" style="edgeStyle=orthogonalEdgeStyle;rounded=0;orthogonalLoop=1;jettySize=auto;html=1;exitX=1;exitY=0.5;exitDx=0;exitDy=0;entryX=0;entryY=0.5;entryDx=0;entryDy=0;endArrow=none;endFill=0;" edge="1" parent="1" source="6k-OeE4OuMQT9iO2E70G-124" target="6k-OeE4OuMQT9iO2E70G-117">
          <mxGeometry relative="1" as="geometry" />
        </mxCell>
        <mxCell id="6k-OeE4OuMQT9iO2E70G-126" style="edgeStyle=orthogonalEdgeStyle;rounded=0;orthogonalLoop=1;jettySize=auto;html=1;exitX=0;exitY=0.5;exitDx=0;exitDy=0;entryX=1;entryY=0.75;entryDx=0;entryDy=0;endArrow=none;endFill=0;" edge="1" parent="1" source="6k-OeE4OuMQT9iO2E70G-124" target="6k-OeE4OuMQT9iO2E70G-99">
          <mxGeometry relative="1" as="geometry" />
        </mxCell>
        <mxCell id="6k-OeE4OuMQT9iO2E70G-124" value="have" style="rhombus;whiteSpace=wrap;html=1;rounded=0;fontSize=8;" vertex="1" parent="1">
          <mxGeometry x="830" y="-839.9" width="40" height="40" as="geometry" />
        </mxCell>
        <mxCell id="6k-OeE4OuMQT9iO2E70G-127" value="(0,n)" style="text;html=1;strokeColor=none;fillColor=none;align=center;verticalAlign=middle;whiteSpace=wrap;rounded=0;fontSize=8;" vertex="1" parent="1">
          <mxGeometry x="900" y="-838" width="20" height="18" as="geometry" />
        </mxCell>
        <mxCell id="6k-OeE4OuMQT9iO2E70G-128" value="(1,1)" style="text;html=1;strokeColor=none;fillColor=none;align=center;verticalAlign=middle;whiteSpace=wrap;rounded=0;fontSize=8;" vertex="1" parent="1">
          <mxGeometry x="779.5" y="-820" width="20" height="18" as="geometry" />
        </mxCell>
        <mxCell id="6k-OeE4OuMQT9iO2E70G-131" value="Date" style="text;html=1;strokeColor=none;fillColor=none;align=right;verticalAlign=middle;whiteSpace=wrap;rounded=0;fontSize=8;" vertex="1" parent="1">
          <mxGeometry x="630" y="-745" width="26" height="10" as="geometry" />
        </mxCell>
        <mxCell id="6k-OeE4OuMQT9iO2E70G-132" style="edgeStyle=orthogonalEdgeStyle;rounded=0;orthogonalLoop=1;jettySize=auto;html=1;endArrow=oval;endFill=0;" edge="1" parent="1">
          <mxGeometry relative="1" as="geometry">
            <mxPoint x="660.5" y="-740.14" as="targetPoint" />
            <mxPoint x="681" y="-740.04" as="sourcePoint" />
            <Array as="points">
              <mxPoint x="671" y="-740.04" />
              <mxPoint x="671" y="-740.04" />
            </Array>
          </mxGeometry>
        </mxCell>
        <mxCell id="6k-OeE4OuMQT9iO2E70G-134" style="edgeStyle=orthogonalEdgeStyle;rounded=0;orthogonalLoop=1;jettySize=auto;html=1;exitX=1;exitY=0.5;exitDx=0;exitDy=0;entryX=0.5;entryY=0;entryDx=0;entryDy=0;endArrow=none;endFill=0;" edge="1" parent="1" source="6k-OeE4OuMQT9iO2E70G-136" target="6k-OeE4OuMQT9iO2E70G-117">
          <mxGeometry relative="1" as="geometry">
            <mxPoint x="920" y="-860" as="targetPoint" />
          </mxGeometry>
        </mxCell>
        <mxCell id="6k-OeE4OuMQT9iO2E70G-135" style="edgeStyle=orthogonalEdgeStyle;rounded=0;orthogonalLoop=1;jettySize=auto;html=1;exitX=0;exitY=0.5;exitDx=0;exitDy=0;entryX=1;entryY=0.75;entryDx=0;entryDy=0;endArrow=none;endFill=0;" edge="1" parent="1" source="6k-OeE4OuMQT9iO2E70G-136">
          <mxGeometry relative="1" as="geometry">
            <mxPoint x="781" y="-860" as="targetPoint" />
          </mxGeometry>
        </mxCell>
        <mxCell id="6k-OeE4OuMQT9iO2E70G-136" value="gives" style="rhombus;whiteSpace=wrap;html=1;rounded=0;fontSize=8;" vertex="1" parent="1">
          <mxGeometry x="830" y="-879.9" width="40" height="40" as="geometry" />
        </mxCell>
        <mxCell id="6k-OeE4OuMQT9iO2E70G-137" value="(0,n)" style="text;html=1;strokeColor=none;fillColor=none;align=center;verticalAlign=middle;whiteSpace=wrap;rounded=0;fontSize=8;" vertex="1" parent="1">
          <mxGeometry x="960" y="-857.9" width="20" height="18" as="geometry" />
        </mxCell>
        <mxCell id="6k-OeE4OuMQT9iO2E70G-138" value="(0,n)" style="text;html=1;strokeColor=none;fillColor=none;align=center;verticalAlign=middle;whiteSpace=wrap;rounded=0;fontSize=8;" vertex="1" parent="1">
          <mxGeometry x="779.5" y="-860" width="20" height="18" as="geometry" />
        </mxCell>
        <mxCell id="6k-OeE4OuMQT9iO2E70G-139" value="Chat" style="rounded=0;whiteSpace=wrap;html=1;" vertex="1" parent="1">
          <mxGeometry x="920.25" y="-1040" width="80" height="40" as="geometry" />
        </mxCell>
        <mxCell id="6k-OeE4OuMQT9iO2E70G-140" style="edgeStyle=orthogonalEdgeStyle;rounded=0;orthogonalLoop=1;jettySize=auto;html=1;endArrow=oval;endFill=0;exitX=1;exitY=0.5;exitDx=0;exitDy=0;" edge="1" parent="1">
          <mxGeometry relative="1" as="geometry">
            <mxPoint x="1019.75" y="-1020" as="targetPoint" />
            <Array as="points">
              <mxPoint x="1009.75" y="-1020" />
              <mxPoint x="1009.75" y="-1020" />
            </Array>
            <mxPoint x="1000.25" y="-1020" as="sourcePoint" />
          </mxGeometry>
        </mxCell>
        <mxCell id="6k-OeE4OuMQT9iO2E70G-141" value="&lt;u&gt;Identification&lt;/u&gt;&lt;br style=&quot;font-size: 8px;&quot;&gt;Messages" style="text;html=1;strokeColor=none;fillColor=none;align=left;verticalAlign=middle;whiteSpace=wrap;rounded=0;fontSize=8;" vertex="1" parent="1">
          <mxGeometry x="1021.75" y="-1038" width="58" height="25" as="geometry" />
        </mxCell>
        <mxCell id="6k-OeE4OuMQT9iO2E70G-142" style="edgeStyle=orthogonalEdgeStyle;rounded=0;orthogonalLoop=1;jettySize=auto;html=1;endArrow=oval;endFill=1;" edge="1" parent="1">
          <mxGeometry relative="1" as="geometry">
            <mxPoint x="1019.25" y="-1030" as="targetPoint" />
            <Array as="points">
              <mxPoint x="1010.25" y="-1030" />
            </Array>
            <mxPoint x="1009.75" y="-1020" as="sourcePoint" />
          </mxGeometry>
        </mxCell>
        <mxCell id="6k-OeE4OuMQT9iO2E70G-146" style="edgeStyle=orthogonalEdgeStyle;rounded=0;orthogonalLoop=1;jettySize=auto;html=1;exitX=1;exitY=0.5;exitDx=0;exitDy=0;entryX=0;entryY=0.5;entryDx=0;entryDy=0;endArrow=none;endFill=0;" edge="1" parent="1" source="6k-OeE4OuMQT9iO2E70G-144" target="6k-OeE4OuMQT9iO2E70G-139">
          <mxGeometry relative="1" as="geometry" />
        </mxCell>
        <mxCell id="6k-OeE4OuMQT9iO2E70G-144" value="have" style="rhombus;whiteSpace=wrap;html=1;rounded=0;fontSize=8;" vertex="1" parent="1">
          <mxGeometry x="840.25" y="-1040" width="40" height="40" as="geometry" />
        </mxCell>
        <mxCell id="6k-OeE4OuMQT9iO2E70G-148" value="(0,n)" style="text;html=1;strokeColor=none;fillColor=none;align=center;verticalAlign=middle;whiteSpace=wrap;rounded=0;fontSize=8;" vertex="1" parent="1">
          <mxGeometry x="900.25" y="-1020" width="20" height="18" as="geometry" />
        </mxCell>
        <mxCell id="6k-OeE4OuMQT9iO2E70G-150" value="Social&lt;br&gt;Network" style="rounded=0;whiteSpace=wrap;html=1;" vertex="1" parent="1">
          <mxGeometry x="920.25" y="-1120.1" width="80" height="40" as="geometry" />
        </mxCell>
        <mxCell id="6k-OeE4OuMQT9iO2E70G-152" style="edgeStyle=orthogonalEdgeStyle;rounded=0;orthogonalLoop=1;jettySize=auto;html=1;exitX=1;exitY=0.5;exitDx=0;exitDy=0;entryX=0;entryY=0.5;entryDx=0;entryDy=0;endArrow=none;endFill=0;" edge="1" parent="1" source="6k-OeE4OuMQT9iO2E70G-151" target="6k-OeE4OuMQT9iO2E70G-150">
          <mxGeometry relative="1" as="geometry" />
        </mxCell>
        <mxCell id="6k-OeE4OuMQT9iO2E70G-151" value="links" style="rhombus;whiteSpace=wrap;html=1;rounded=0;fontSize=8;" vertex="1" parent="1">
          <mxGeometry x="840.25" y="-1120.1" width="40" height="40" as="geometry" />
        </mxCell>
        <mxCell id="6k-OeE4OuMQT9iO2E70G-153" value="(0,n)" style="text;html=1;strokeColor=none;fillColor=none;align=center;verticalAlign=middle;whiteSpace=wrap;rounded=0;fontSize=8;" vertex="1" parent="1">
          <mxGeometry x="900.25" y="-1100" width="20" height="18" as="geometry" />
        </mxCell>
        <mxCell id="6k-OeE4OuMQT9iO2E70G-155" style="edgeStyle=orthogonalEdgeStyle;rounded=0;orthogonalLoop=1;jettySize=auto;html=1;endArrow=oval;endFill=1;exitX=1;exitY=0.5;exitDx=0;exitDy=0;" edge="1" parent="1">
          <mxGeometry relative="1" as="geometry">
            <mxPoint x="1019.75" y="-1100.1" as="targetPoint" />
            <Array as="points">
              <mxPoint x="1009.75" y="-1100.1" />
              <mxPoint x="1009.75" y="-1100.1" />
            </Array>
            <mxPoint x="1000.25" y="-1100.1" as="sourcePoint" />
          </mxGeometry>
        </mxCell>
        <mxCell id="6k-OeE4OuMQT9iO2E70G-156" value="&lt;u&gt;Name&lt;/u&gt;" style="text;html=1;strokeColor=none;fillColor=none;align=left;verticalAlign=middle;whiteSpace=wrap;rounded=0;fontSize=8;" vertex="1" parent="1">
          <mxGeometry x="1021.75" y="-1110" width="38.5" height="20" as="geometry" />
        </mxCell>
        <mxCell id="6k-OeE4OuMQT9iO2E70G-167" style="edgeStyle=orthogonalEdgeStyle;rounded=0;orthogonalLoop=1;jettySize=auto;html=1;exitX=1;exitY=0.5;exitDx=0;exitDy=0;entryX=0.75;entryY=0;entryDx=0;entryDy=0;endArrow=none;endFill=0;" edge="1" parent="1" source="6k-OeE4OuMQT9iO2E70G-158" target="6k-OeE4OuMQT9iO2E70G-99">
          <mxGeometry relative="1" as="geometry">
            <Array as="points">
              <mxPoint x="750" y="-1000" />
              <mxPoint x="750" y="-940" />
              <mxPoint x="750" y="-940" />
            </Array>
          </mxGeometry>
        </mxCell>
        <mxCell id="6k-OeE4OuMQT9iO2E70G-158" value="leave a tip" style="rhombus;whiteSpace=wrap;html=1;rounded=0;fontSize=8;" vertex="1" parent="1">
          <mxGeometry x="690" y="-1020" width="40" height="40" as="geometry" />
        </mxCell>
        <mxCell id="6k-OeE4OuMQT9iO2E70G-161" value="(0,n)" style="text;html=1;strokeColor=none;fillColor=none;align=center;verticalAlign=middle;whiteSpace=wrap;rounded=0;fontSize=8;" vertex="1" parent="1">
          <mxGeometry x="900" y="-940.1" width="20" height="18" as="geometry" />
        </mxCell>
        <mxCell id="6k-OeE4OuMQT9iO2E70G-162" style="edgeStyle=orthogonalEdgeStyle;rounded=0;orthogonalLoop=1;jettySize=auto;html=1;endArrow=oval;endFill=0;exitX=0.5;exitY=0;exitDx=0;exitDy=0;" edge="1" parent="1" source="6k-OeE4OuMQT9iO2E70G-158">
          <mxGeometry relative="1" as="geometry">
            <mxPoint x="699.5" y="-1040" as="targetPoint" />
            <Array as="points">
              <mxPoint x="710" y="-1040" />
            </Array>
            <mxPoint x="680" y="-1040" as="sourcePoint" />
          </mxGeometry>
        </mxCell>
        <mxCell id="6k-OeE4OuMQT9iO2E70G-163" value="Amount&lt;br&gt;Payment method" style="text;html=1;strokeColor=none;fillColor=none;align=right;verticalAlign=middle;whiteSpace=wrap;rounded=0;fontSize=8;" vertex="1" parent="1">
          <mxGeometry x="633" y="-1045" width="63" height="17" as="geometry" />
        </mxCell>
        <mxCell id="6k-OeE4OuMQT9iO2E70G-165" style="edgeStyle=orthogonalEdgeStyle;rounded=0;orthogonalLoop=1;jettySize=auto;html=1;endArrow=oval;endFill=0;" edge="1" parent="1">
          <mxGeometry relative="1" as="geometry">
            <mxPoint x="700" y="-1030" as="targetPoint" />
            <Array as="points">
              <mxPoint x="710" y="-1020" />
              <mxPoint x="710" y="-1030" />
            </Array>
            <mxPoint x="710" y="-1020" as="sourcePoint" />
          </mxGeometry>
        </mxCell>
        <mxCell id="6k-OeE4OuMQT9iO2E70G-173" style="edgeStyle=orthogonalEdgeStyle;rounded=0;orthogonalLoop=1;jettySize=auto;html=1;exitX=1;exitY=0.5;exitDx=0;exitDy=0;entryX=0.5;entryY=0;entryDx=0;entryDy=0;endArrow=none;endFill=0;" edge="1" parent="1" source="6k-OeE4OuMQT9iO2E70G-168" target="6k-OeE4OuMQT9iO2E70G-172">
          <mxGeometry relative="1" as="geometry" />
        </mxCell>
        <mxCell id="6k-OeE4OuMQT9iO2E70G-168" value="Transport" style="rounded=0;whiteSpace=wrap;html=1;" vertex="1" parent="1">
          <mxGeometry x="400" y="-1080" width="80" height="40.1" as="geometry" />
        </mxCell>
        <mxCell id="6k-OeE4OuMQT9iO2E70G-171" style="edgeStyle=orthogonalEdgeStyle;rounded=0;orthogonalLoop=1;jettySize=auto;html=1;exitX=0.5;exitY=0;exitDx=0;exitDy=0;entryX=0.5;entryY=1;entryDx=0;entryDy=0;endArrow=none;endFill=0;" edge="1" parent="1" source="6k-OeE4OuMQT9iO2E70G-169" target="6k-OeE4OuMQT9iO2E70G-168">
          <mxGeometry relative="1" as="geometry" />
        </mxCell>
        <mxCell id="6k-OeE4OuMQT9iO2E70G-169" value="pay" style="rhombus;whiteSpace=wrap;html=1;rounded=0;fontSize=8;" vertex="1" parent="1">
          <mxGeometry x="420" y="-980" width="40" height="40" as="geometry" />
        </mxCell>
        <mxCell id="6k-OeE4OuMQT9iO2E70G-174" style="edgeStyle=orthogonalEdgeStyle;rounded=0;orthogonalLoop=1;jettySize=auto;html=1;exitX=1;exitY=0.5;exitDx=0;exitDy=0;endArrow=none;endFill=0;" edge="1" parent="1" source="6k-OeE4OuMQT9iO2E70G-172">
          <mxGeometry relative="1" as="geometry">
            <mxPoint x="660.0000000000002" y="-880" as="targetPoint" />
            <Array as="points">
              <mxPoint x="640" y="-982" />
              <mxPoint x="640" y="-880" />
            </Array>
          </mxGeometry>
        </mxCell>
        <mxCell id="6k-OeE4OuMQT9iO2E70G-172" value="transports" style="rhombus;whiteSpace=wrap;html=1;rounded=0;fontSize=8;" vertex="1" parent="1">
          <mxGeometry x="541" y="-1002" width="40" height="40" as="geometry" />
        </mxCell>
      </root>
    </mxGraphModel>
  </diagram>
</mxfile>
